<?xml version="1.0" encoding="UTF-8"?>
<svg height="16px" viewBox="0 0 16 16" width="16px" xmlns="http://www.w3.org/2000/svg" xmlns:xlink="http://www.w3.org/1999/xlink">
    <filter id="a" height="100%" width="100%" x="0%" y="0%">
        <feColorMatrix color-interpolation-filters="sRGB" values="0 0 0 0 1 0 0 0 0 1 0 0 0 0 1 0 0 0 1 0"/>
    </filter>
    <mask id="b">
        <g filter="url(#a)">
            <path d="m -1.6 -1.6 h 19.2 v 19.2 h -19.2 z" fill-opacity="0.8"/>
        </g>
    </mask>
    <clipPath id="c">
        <path d="m 0 0 h 800 v 800 h -800 z"/>
    </clipPath>
    <mask id="d">
        <g filter="url(#a)">
            <path d="m -1.6 -1.6 h 19.2 v 19.2 h -19.2 z" fill-opacity="0.8"/>
        </g>
    </mask>
    <clipPath id="e">
        <path d="m 0 0 h 800 v 800 h -800 z"/>
    </clipPath>
    <mask id="f">
        <g filter="url(#a)">
            <path d="m -1.6 -1.6 h 19.2 v 19.2 h -19.2 z" fill-opacity="0.8"/>
        </g>
    </mask>
    <clipPath id="g">
        <path d="m 0 0 h 800 v 800 h -800 z"/>
    </clipPath>
    <mask id="h">
        <g filter="url(#a)">
            <path d="m -1.6 -1.6 h 19.2 v 19.2 h -19.2 z" fill-opacity="0.8"/>
        </g>
    </mask>
    <clipPath id="i">
        <path d="m 0 0 h 800 v 800 h -800 z"/>
    </clipPath>
    <mask id="j">
        <g filter="url(#a)">
            <path d="m -1.6 -1.6 h 19.2 v 19.2 h -19.2 z" fill-opacity="0.6"/>
        </g>
    </mask>
    <clipPath id="k">
        <path d="m 0 0 h 800 v 800 h -800 z"/>
    </clipPath>
    <mask id="l">
        <g filter="url(#a)">
            <path d="m -1.6 -1.6 h 19.2 v 19.2 h -19.2 z" fill-opacity="0.6"/>
        </g>
    </mask>
    <clipPath id="m">
        <path d="m 0 0 h 800 v 800 h -800 z"/>
    </clipPath>
    <mask id="n">
        <g filter="url(#a)">
            <path d="m -1.6 -1.6 h 19.2 v 19.2 h -19.2 z" fill-opacity="0.6"/>
        </g>
    </mask>
    <clipPath id="o">
        <path d="m 0 0 h 800 v 800 h -800 z"/>
    </clipPath>
    <g mask="url(#b)">
        <g clip-path="url(#c)" transform="matrix(1 0 0 1 -124 -280)">
            <path d="m 186 369 l 12 -0.5 v 5.5 h -12 z m 0 0" fill="#587b7f"/>
        </g>
    </g>
    <g mask="url(#d)">
        <g clip-path="url(#e)" transform="matrix(1 0 0 1 -124 -280)">
            <path d="m 147 369.5 h 10 l 2.5 4 h -15 z m 0 0" fill="#587b7f"/>
        </g>
    </g>
    <g mask="url(#f)">
        <g clip-path="url(#g)" transform="matrix(1 0 0 1 -124 -280)">
            <path d="m 104.5 361 h 2 l 10 14 h -2 z m 0 0" fill="#587b7f"/>
        </g>
    </g>
    <g mask="url(#h)">
        <g clip-path="url(#i)" transform="matrix(1 0 0 1 -124 -280)">
            <path d="m 88 370.5 h 8 l 2 3 h -12 z m 0 0" fill="#587b7f"/>
        </g>
    </g>
    <g mask="url(#j)">
        <g clip-path="url(#k)" transform="matrix(1 0 0 1 -124 -280)">
            <path d="m 70 322.5 c 2.484375 0 4.5 2.015625 4.5 4.5 v 1 c 0 2.484375 -2.015625 4.5 -4.5 4.5 s -4.5 -2.015625 -4.5 -4.5 v -1 c 0 -2.484375 2.015625 -4.5 4.5 -4.5 z m 0 0" fill="none" stroke="#000000" stroke-width="2" transform="matrix(1 0 0 1 2 39.5)"/>
        </g>
    </g>
    <g mask="url(#l)">
        <g clip-path="url(#m)" transform="matrix(1 0 0 1 -124 -280)">
            <path d="m 66 326.5 h 3 c 1.65625 0 3 1.34375 3 3 s -1.34375 3 -3 3 h -3 c -1.65625 0 -3 -1.34375 -3 -3 s 1.34375 -3 3 -3 z m 0 0" fill="none" stroke="#000000" stroke-width="1.99997" transform="matrix(1 0 0 1 2 39.5)"/>
        </g>
    </g>
    <g mask="url(#n)">
        <g clip-path="url(#o)" transform="matrix(1 0 0 1 -124 -280)">
            <path d="m 71.78125 325.5 h 1.21875 c 2.210938 0 4 1.566406 4 3.5 s -1.789062 3.5 -4 3.5 h -1.21875 c -2.207031 0 -4 -1.566406 -4 -3.5 s 1.792969 -3.5 4 -3.5 z m 0 0" fill="none" stroke="#000000" stroke-width="2" transform="matrix(1 0 0 1 2 39.5)"/>
        </g>
    </g>
    <path d="m 8 1 c -2.59375 0 -4.777344 1.8125 -5.351562 4.238281 c -1.539063 0.558594 -2.648438 2.035157 -2.648438 3.761719 c 0 0.929688 0.324219 1.785156 0.859375 2.464844 l 1.386719 -1.484375 c -0.15625 -0.289063 -0.246094 -0.621094 -0.246094 -0.980469 c 0 -1.125 0.875 -2 2 -2 h 0.5 v -0.5 c 0 -1.957031 1.542969 -3.5 3.5 -3.5 c 1.796875 0 3.246094 1.304688 3.46875 3.03125 c 1.496094 0.191406 2.53125 1.265625 2.53125 2.46875 c 0 0.488281 -0.171875 0.957031 -0.476562 1.355469 l 1.472656 1.351562 c 0.625 -0.746093 1.003906 -1.675781 1.003906 -2.707031 c 0 -1.851562 -1.21875 -3.386719 -2.914062 -4.085938 c -0.824219 -2 -2.796876 -3.414062 -5.085938 -3.414062 z m 0 0"/>
    <path d="m 9.5 13 c 0 0.828125 -0.671875 1.5 -1.5 1.5 s -1.5 -0.671875 -1.5 -1.5 s 0.671875 -1.5 1.5 -1.5 s 1.5 0.671875 1.5 1.5 z m 0 0"/>
    <path d="m 5.5 13 c 0 0.828125 -0.671875 1.5 -1.5 1.5 s -1.5 -0.671875 -1.5 -1.5 s 0.671875 -1.5 1.5 -1.5 s 1.5 0.671875 1.5 1.5 z m 0 0"/>
    <path d="m 13.5 13 c 0 0.828125 -0.671875 1.5 -1.5 1.5 s -1.5 -0.671875 -1.5 -1.5 s 0.671875 -1.5 1.5 -1.5 s 1.5 0.671875 1.5 1.5 z m 0 0"/>
</svg>
