<?xml version="1.0" encoding="UTF-8"?>
<svg height="16px" viewBox="0 0 16 16" width="16px" xmlns="http://www.w3.org/2000/svg" xmlns:xlink="http://www.w3.org/1999/xlink">
    <filter id="a" height="100%" width="100%" x="0%" y="0%">
        <feColorMatrix color-interpolation-filters="sRGB" values="0 0 0 0 1 0 0 0 0 1 0 0 0 0 1 0 0 0 1 0"/>
    </filter>
    <mask id="b">
        <g filter="url(#a)">
            <path d="m -1.6 -1.6 h 19.2 v 19.2 h -19.2 z" fill-opacity="0.8"/>
        </g>
    </mask>
    <clipPath id="c">
        <path d="m 0 0 h 800 v 800 h -800 z"/>
    </clipPath>
    <mask id="d">
        <g filter="url(#a)">
            <path d="m -1.6 -1.6 h 19.2 v 19.2 h -19.2 z" fill-opacity="0.8"/>
        </g>
    </mask>
    <clipPath id="e">
        <path d="m 0 0 h 800 v 800 h -800 z"/>
    </clipPath>
    <mask id="f">
        <g filter="url(#a)">
            <path d="m -1.6 -1.6 h 19.2 v 19.2 h -19.2 z" fill-opacity="0.8"/>
        </g>
    </mask>
    <clipPath id="g">
        <path d="m 0 0 h 800 v 800 h -800 z"/>
    </clipPath>
    <mask id="h">
        <g filter="url(#a)">
            <path d="m -1.6 -1.6 h 19.2 v 19.2 h -19.2 z" fill-opacity="0.8"/>
        </g>
    </mask>
    <clipPath id="i">
        <path d="m 0 0 h 800 v 800 h -800 z"/>
    </clipPath>
    <mask id="j">
        <g filter="url(#a)">
            <path d="m -1.6 -1.6 h 19.2 v 19.2 h -19.2 z" fill-opacity="0.6"/>
        </g>
    </mask>
    <clipPath id="k">
        <path d="m 0 0 h 800 v 800 h -800 z"/>
    </clipPath>
    <mask id="l">
        <g filter="url(#a)">
            <path d="m -1.6 -1.6 h 19.2 v 19.2 h -19.2 z" fill-opacity="0.6"/>
        </g>
    </mask>
    <clipPath id="m">
        <path d="m 0 0 h 800 v 800 h -800 z"/>
    </clipPath>
    <mask id="n">
        <g filter="url(#a)">
            <path d="m -1.6 -1.6 h 19.2 v 19.2 h -19.2 z" fill-opacity="0.6"/>
        </g>
    </mask>
    <clipPath id="o">
        <path d="m 0 0 h 800 v 800 h -800 z"/>
    </clipPath>
    <g mask="url(#b)">
        <g clip-path="url(#c)" transform="matrix(1 0 0 1 -104 -280)">
            <path d="m 166 369 l 12 -0.5 v 5.5 h -12 z m 0 0" fill="#587b7f"/>
        </g>
    </g>
    <g mask="url(#d)">
        <g clip-path="url(#e)" transform="matrix(1 0 0 1 -104 -280)">
            <path d="m 127 369.5 h 10 l 2.5 4 h -15 z m 0 0" fill="#587b7f"/>
        </g>
    </g>
    <g mask="url(#f)">
        <g clip-path="url(#g)" transform="matrix(1 0 0 1 -104 -280)">
            <path d="m 104.5 361 h 2 l 10 14 h -2 z m 0 0" fill="#587b7f"/>
        </g>
    </g>
    <g mask="url(#h)">
        <g clip-path="url(#i)" transform="matrix(1 0 0 1 -104 -280)">
            <path d="m 88 370.5 h 8 l 2 3 h -12 z m 0 0" fill="#587b7f"/>
        </g>
    </g>
    <g mask="url(#j)">
        <g clip-path="url(#k)" transform="matrix(1 0 0 1 -104 -280)">
            <path d="m 70 322.5 c 2.484375 0 4.5 2.015625 4.5 4.5 v 1 c 0 2.484375 -2.015625 4.5 -4.5 4.5 s -4.5 -2.015625 -4.5 -4.5 v -1 c 0 -2.484375 2.015625 -4.5 4.5 -4.5 z m 0 0" fill="none" stroke="#000000" stroke-width="2" transform="matrix(1 0 0 1 2 39.5)"/>
        </g>
    </g>
    <g mask="url(#l)">
        <g clip-path="url(#m)" transform="matrix(1 0 0 1 -104 -280)">
            <path d="m 66 326.5 h 3 c 1.65625 0 3 1.34375 3 3 s -1.34375 3 -3 3 h -3 c -1.65625 0 -3 -1.34375 -3 -3 s 1.34375 -3 3 -3 z m 0 0" fill="none" stroke="#000000" stroke-width="1.99997" transform="matrix(1 0 0 1 2 39.5)"/>
        </g>
    </g>
    <g mask="url(#n)">
        <g clip-path="url(#o)" transform="matrix(1 0 0 1 -104 -280)">
            <path d="m 71.78125 325.5 h 1.21875 c 2.210938 0 4 1.566406 4 3.5 s -1.789062 3.5 -4 3.5 h -1.21875 c -2.207031 0 -4 -1.566406 -4 -3.5 s 1.792969 -3.5 4 -3.5 z m 0 0" fill="none" stroke="#000000" stroke-width="2" transform="matrix(1 0 0 1 2 39.5)"/>
        </g>
    </g>
    <path d="m 8 1 c -1.652344 0 -3.136719 0.738281 -4.144531 1.898438 l 1.207031 1.683593 c 0.617188 -0.957031 1.691406 -1.582031 2.9375 -1.582031 c 1.796875 0 3.246094 1.304688 3.46875 3.03125 c 1.496094 0.191406 2.53125 1.265625 2.53125 2.46875 c 0 1.324219 -1.253906 2.5 -3 2.5 h -1.355469 l 1.425781 2 c 2.65625 -0.035156 4.929688 -1.96875 4.929688 -4.5 c 0 -1.851562 -1.21875 -3.386719 -2.914062 -4.085938 c -0.824219 -2 -2.796876 -3.414062 -5.085938 -3.414062 z m -5.074219 3.394531 c -0.117187 0.269531 -0.207031 0.550781 -0.277343 0.84375 c -1.539063 0.558594 -2.648438 2.035157 -2.648438 3.761719 c 0 2.199219 1.800781 4 4 4 h 5.074219 l -1.429688 -2 h -3.644531 c -1.125 0 -2 -0.875 -2 -2 s 0.875 -2 2 -2 h 0.5 v -0.398438 z m 0 0"/>
    <path d="m 2.5 1 h 2 l 10 14 h -2 z m 0 0"/>
</svg>
