<?xml version="1.0" encoding="UTF-8"?>
<svg height="16px" viewBox="0 0 16 16" width="16px" xmlns="http://www.w3.org/2000/svg">
    <g fill="#808080">
        <path d="m 2 12.25 h 12 v 1 h -12 z m 0 0" fill-opacity="0.6"/>
        <path d="m 5 2.75 h 6 c 0.550781 0 1 0.449219 1 1 v 8.5 h -8 v -8.5 c 0 -0.550781 0.449219 -1 1 -1 z m 0 0" fill-opacity="0.290196"/>
        <path d="m 5 9.75 h 4 v 1 h -4 z m 0 0" fill-opacity="0.368627"/>
        <path d="m 2 11.25 h 2 v 1 h -2 z m 0 0" fill-opacity="0.6"/>
        <path d="m 12 11.25 h 2 v 1 h -2 z m 0 0" fill-opacity="0.6"/>
        <path d="m 10 9.75 h 1 v 1 h -1 z m 0 0" fill-opacity="0.368627"/>
        <path d="m 8 5.75 h 3 v 1 h -3 z m 0 0" fill-opacity="0.368627"/>
        <path d="m 7 7.75 h 4 v 1 h -4 z m 0 0" fill-opacity="0.368627"/>
        <path d="m 2 8.25 h 2 v 1 h -2 z m 0 0" fill-opacity="0.6"/>
        <path d="m 2 9.25 h 2 v 1 h -2 z m 0 0" fill-opacity="0.6"/>
        <path d="m 12 9.25 h 2 v 1 h -2 z m 0 0" fill-opacity="0.6"/>
        <path d="m 12 8.25 h 2 v 1 h -2 z m 0 0" fill-opacity="0.6"/>
        <path d="m 5 5.75 h 2 v 1 h -2 z m 0 0" fill-opacity="0.368627"/>
        <path d="m 5 3.75 h 6 v 1 h -6 z m 0 0" fill-opacity="0.368627"/>
        <path d="m 5 7.75 h 1 v 1 h -1 z m 0 0" fill-opacity="0.368627"/>
    </g>
    <path d="m 8.75 10.75 h 1.5 v 3 h -1.5 z m 0 0"/>
    <path d="m 7 10.75 l 2.5 -2 l 2.5 2 z m 0 0"/>
    <path d="m 14.25 11.75 h -1.5 v -3 h 1.5 z m 0 0"/>
    <path d="m 16 11.75 l -2.5 2 l -2.5 -2 z m 0 0"/>
</svg>
