<?xml version="1.0" encoding="UTF-8"?>
<svg height="16px" viewBox="0 0 16 16" width="16px" xmlns="http://www.w3.org/2000/svg">
    <path d="m 7.5 0 c -2.078125 0 -3.882812 1.246094 -4.816406 3.09375 c -1.542969 0.367188 -2.683594 1.75 -2.683594 3.40625 c 0 0.644531 0.175781 1.246094 0.476562 1.761719 c 1.113282 -3.367188 4.050782 -5.761719 7.523438 -5.761719 c 1.78125 0 3.421875 0.632812 4.75 1.699219 c -0.699219 -2.4375 -2.777344 -4.199219 -5.25 -4.199219 z m 0 0"/>
    <path d="m 8 4 c -2.925781 0 -5.304688 2.265625 -5.488281 5.144531 c -1.488281 0.4375 -2.511719 1.800781 -2.511719 3.355469 c 0 1.933594 1.566406 3.5 3.5 3.5 h 3.003906 l -1.542968 -1.542969 c -0.25 -0.253906 -0.25 -0.660156 0 -0.914062 l 1.675781 -1.679688 c 0.234375 -0.230469 0.546875 -0.363281 0.875 -0.363281 h 0.488281 v 1.5 h 1 c 0.550781 0 1 -0.449219 1 -1 v -1 l 1.5 -1.5 h 0.5 v 2.503906 c 0 1.652344 -1.339844 2.996094 -2.996094 2.992188 h -1.003906 v 1.003906 h 3 c 2.769531 0 5 -2.007812 5 -4.5 c 0 -1.820312 -1.191406 -3.378906 -2.910156 -4.089844 c -0.820313 -2.003906 -2.785156 -3.410156 -5.089844 -3.410156 z m 0 1.5 h 1 l 2.042969 2.046875 c 0.25 0.25 0.25 0.65625 0 0.90625 l -1.679688 1.683594 c -0.234375 0.234375 -0.546875 0.363281 -0.878906 0.363281 h -0.484375 v -1.5 h -1 c -0.550781 0 -1 0.449219 -1 1 v 1 l -1.5 1.5 h -0.5 v -2.503906 c 0 -1.65625 1.339844 -2.996094 2.996094 -2.996094 h 1.003906 z m 0 0"/>
</svg>
