<?xml version="1.0" encoding="UTF-8"?>
<svg height="128px" viewBox="0 0 128 128" width="128px" xmlns="http://www.w3.org/2000/svg" xmlns:xlink="http://www.w3.org/1999/xlink">
    <filter id="a" height="100%" width="100%" x="0%" y="0%">
        <feColorMatrix color-interpolation-filters="sRGB" values="0 0 0 0 1 0 0 0 0 1 0 0 0 0 1 0 0 0 1 0"/>
    </filter>
    <linearGradient id="b" gradientUnits="userSpaceOnUse" x1="4.00021093137" x2="15.58480899568" y1="49.99098292395" y2="59.37639406635">
        <stop offset="0.109641" stop-color="#1a5fb4"/>
        <stop offset="0.386097" stop-color="#62a0ea"/>
        <stop offset="0.664658" stop-color="#1a5fb4"/>
        <stop offset="1" stop-color="#1a5fb4"/>
    </linearGradient>
    <linearGradient id="c" gradientUnits="userSpaceOnUse" x1="8.14339666578" x2="21.42720881544" y1="68.75592254521" y2="74.49095254057">
        <stop offset="0.120674" stop-color="#3584e4"/>
        <stop offset="0.372813" stop-color="#99c1f1"/>
        <stop offset="0.699395" stop-color="#3584e4"/>
        <stop offset="1" stop-color="#3584e4"/>
    </linearGradient>
    <linearGradient id="d" gradientUnits="userSpaceOnUse" x1="14.00002021801" x2="38.49034008482" y1="91.51077920424" y2="91.51077920424">
        <stop offset="0" stop-color="#c0bfbc"/>
        <stop offset="0.399654" stop-color="#deddda"/>
        <stop offset="1" stop-color="#c0bfbc"/>
    </linearGradient>
    <linearGradient id="e" gradientUnits="userSpaceOnUse" x1="89.99019321522" x2="124.0000302595" y1="82.00003480604" y2="82.00003480604">
        <stop offset="0" stop-color="#c0bfbc"/>
        <stop offset="0.600346" stop-color="#deddda"/>
        <stop offset="1" stop-color="#c0bfbc"/>
    </linearGradient>
    <linearGradient id="f" gradientUnits="userSpaceOnUse" x1="31.99999532191" x2="97.99999454453" y1="70.92951047378" y2="70.92951047378">
        <stop offset="0.0676538" stop-color="#e3e2df"/>
        <stop offset="0.0676538" stop-color="#d5d3cf"/>
        <stop offset="0.49843" stop-color="#c0bfbc"/>
        <stop offset="0.852622" stop-color="#d5d3cf"/>
        <stop offset="1" stop-color="#e3e2df"/>
    </linearGradient>
    <clipPath id="g">
        <rect height="128" width="128"/>
    </clipPath>
    <clipPath id="h">
        <rect height="128" width="128"/>
    </clipPath>
    <mask id="i">
        <g filter="url(#a)">
            <g clip-path="url(#h)" filter="url(#a)">
                <g clip-path="url(#g)">
                    <path d="m 77.339844 41.628906 c 0 16.363282 -13.730469 29.628906 -30.667969 29.628906 c -16.941406 0 -30.671875 -13.265624 -30.671875 -29.628906 c 0 -16.363281 13.730469 -29.628906 30.671875 -29.628906 c 16.9375 0 30.667969 13.265625 30.667969 29.628906 z m 0 0" fill="#3e87dc"/>
                    <path d="m 31.984375 49.992188 c 0 7.726562 -6.265625 13.992187 -13.992187 13.992187 c -7.726563 0 -13.992188 -6.265625 -13.992188 -13.992187 c 0 -7.726563 6.265625 -13.992188 13.992188 -13.992188 c 7.726562 0 13.992187 6.265625 13.992187 13.992188 z m 0 0" fill="#3e87dc"/>
                    <path d="m 31.839844 47.988281 c -0.996094 6.882813 -6.894532 11.992188 -13.847656 11.996094 c -6.953126 0 -12.855469 -5.109375 -13.847657 -11.992187 c -0.097656 0.660156 -0.144531 1.328124 -0.144531 2 c 0 7.726562 6.265625 13.992187 13.992188 13.992187 c 7.726562 0 13.992187 -6.265625 13.992187 -13.992187 c 0 -0.671876 -0.050781 -1.339844 -0.144531 -2.003907 z m 0 0" fill="url(#b)"/>
                    <path d="m 45.511719 70.757812 c 0 10.355469 -8.398438 18.753907 -18.753907 18.753907 c -10.359374 0 -18.757812 -8.398438 -18.757812 -18.753907 c 0 -10.359374 8.398438 -18.757812 18.757812 -18.757812 c 10.355469 0 18.753907 8.398438 18.753907 18.757812 z m 0 0" fill="#62a0ea"/>
                    <path d="m 89.289062 54.789062 c 0 18.109376 -15.0625 32.789063 -33.644531 32.789063 s -33.644531 -14.679687 -33.644531 -32.789063 c 0 -18.109374 15.0625 -32.789062 33.644531 -32.789062 s 33.644531 14.679688 33.644531 32.789062 z m 0 0" fill="#62a0ea"/>
                    <path d="m 45.382812 68.585938 c -0.941406 9.585937 -8.992187 16.902343 -18.625 16.925781 c -9.570312 -0.019531 -17.59375 -7.238281 -18.613281 -16.753907 c -0.085937 0.660157 -0.132812 1.328126 -0.144531 2 c 0 10.355469 8.398438 18.753907 18.757812 18.753907 c 10.355469 0 18.753907 -8.398438 18.753907 -18.753907 c 0 -0.726562 -0.042969 -1.453124 -0.128907 -2.171874 z m 0 0" fill="url(#c)"/>
                    <path d="m 63.949219 90.972656 c 0 13.792969 -11.183594 24.976563 -24.976563 24.976563 c -13.792968 0 -24.972656 -11.183594 -24.972656 -24.976563 c 0 -13.792968 11.179688 -24.972656 24.972656 -24.972656 c 13.792969 0 24.976563 11.179688 24.976563 24.972656 z m 0 0" fill="url(#d)"/>
                    <path d="m 124 82 c 0 18.777344 -15.222656 34 -34 34 s -34 -15.222656 -34 -34 s 15.222656 -34 34 -34 s 34 15.222656 34 34 z m 0 0" fill="url(#e)"/>
                    <path d="m 40 112 h 50 v 4 h -50 z m 0 0" fill="#c0bfbc"/>
                    <path d="m 38 92 h 52 v 20 h -52 z m 0 0" fill="#ffffff"/>
                    <path d="m 91.984375 48 c -16.976563 0.042969 -30.984375 14.0625 -31.984375 32 c 1 17.9375 15.007812 31.957031 31.984375 32 c 17.167969 -0.039062 31.273437 -14.371094 32.015625 -32.53125 c -1.25 -17.742188 -15.210938 -31.464844 -32.015625 -31.46875 z m 0 0" fill="#ffffff"/>
                    <path d="m 62 88 c 0 13.253906 -10.746094 24 -24 24 s -24 -10.746094 -24 -24 s 10.746094 -24 24 -24 s 24 10.746094 24 24 z m 0 0" fill="#ffffff"/>
                    <path d="m 98 70.929688 c 0 18.207031 -14.773438 32.964843 -33 32.964843 s -33 -14.757812 -33 -32.964843 c 0 -18.207032 14.773438 -32.964844 33 -32.964844 s 33 14.757812 33 32.964844 z m 0 0" fill="url(#f)"/>
                    <path d="m 98 65.980469 c 0 18.769531 -15.222656 33.984375 -34 33.984375 s -34 -15.214844 -34 -33.984375 c 0 -18.765625 15.222656 -33.980469 34 -33.980469 s 34 15.214844 34 33.980469 z m 0 0" fill="#ffffff"/>
                    <path d="m 62 40.964844 v 3.996094 l 3 3.003906 h -6.894531 c -7.789063 0 -14.105469 6.316406 -14.105469 14.105468 v 6.8125 c 0 2.253907 1.824219 4.082032 4.078125 4.082032 c 2.1875 -0.023438 3.945313 -1.8125 3.921875 -4.003906 v -7 c 0 -3.3125 2.6875 -5.996094 6 -5.996094 h 7 l -3 3 v 4 h 3 c 1.28125 0 2.507812 -0.511719 3.414062 -1.414063 l 7.050782 -7.054687 c 1.398437 -1.398438 1.398437 -3.664063 0 -5.0625 l -7.050782 -7.054688 c -0.90625 -0.90625 -2.132812 -1.414062 -3.414062 -1.414062 z m 17.921875 17 c -2.1875 0.019531 -3.945313 1.808594 -3.921875 3.996094 v 7.972656 c 0 3.316406 -2.683594 6.003906 -6 6.011718 l -6.996094 0.015626 l 2.996094 -2.996094 v -4.003906 h -3 c -1.28125 0.003906 -2.507812 0.511718 -3.414062 1.417968 l -7.054688 7.054688 c -1.394531 1.398437 -1.394531 3.664062 0 5.0625 l 7.054688 7.054687 c 0.90625 0.902344 2.132812 1.414063 3.414062 1.414063 h 3 v -4 l -3 -3 h 6.894531 c 7.789063 -0.003906 14.105469 -6.316406 14.105469 -14.105469 v -7.816406 c 0 -2.253907 -1.824219 -4.078125 -4.078125 -4.078125 z m 0 0" fill="#3584e4"/>
                </g>
            </g>
        </g>
    </mask>
    <mask id="j">
        <g filter="url(#a)">
            <rect fill-opacity="0.8" height="184.32" width="184.32" x="-28.16" y="-28.16"/>
        </g>
    </mask>
    <linearGradient id="k" gradientTransform="matrix(0 0.37 -0.98462 0 295.38501 -30.360001)" gradientUnits="userSpaceOnUse" x1="300" x2="428" y1="235" y2="235">
        <stop offset="0" stop-color="#f9f06b"/>
        <stop offset="1" stop-color="#f5c211"/>
    </linearGradient>
    <clipPath id="l">
        <rect height="128" width="128"/>
    </clipPath>
    <clipPath id="m">
        <rect height="128" width="128"/>
    </clipPath>
    <path d="m 77.339844 41.628906 c 0 16.363282 -13.730469 29.628906 -30.667969 29.628906 c -16.941406 0 -30.671875 -13.265624 -30.671875 -29.628906 c 0 -16.363281 13.730469 -29.628906 30.671875 -29.628906 c 16.9375 0 30.667969 13.265625 30.667969 29.628906 z m 0 0" fill="#3e87dc"/>
    <path d="m 31.984375 49.992188 c 0 7.726562 -6.265625 13.992187 -13.992187 13.992187 c -7.726563 0 -13.992188 -6.265625 -13.992188 -13.992187 c 0 -7.726563 6.265625 -13.992188 13.992188 -13.992188 c 7.726562 0 13.992187 6.265625 13.992187 13.992188 z m 0 0" fill="#3e87dc"/>
    <path d="m 31.839844 47.988281 c -0.996094 6.882813 -6.894532 11.992188 -13.847656 11.996094 c -6.953126 0 -12.855469 -5.109375 -13.847657 -11.992187 c -0.097656 0.660156 -0.144531 1.328124 -0.144531 2 c 0 7.726562 6.265625 13.992187 13.992188 13.992187 c 7.726562 0 13.992187 -6.265625 13.992187 -13.992187 c 0 -0.671876 -0.050781 -1.339844 -0.144531 -2.003907 z m 0 0" fill="url(#b)"/>
    <path d="m 45.511719 70.757812 c 0 10.355469 -8.398438 18.753907 -18.753907 18.753907 c -10.359374 0 -18.757812 -8.398438 -18.757812 -18.753907 c 0 -10.359374 8.398438 -18.757812 18.757812 -18.757812 c 10.355469 0 18.753907 8.398438 18.753907 18.757812 z m 0 0" fill="#62a0ea"/>
    <path d="m 89.289062 54.789062 c 0 18.109376 -15.0625 32.789063 -33.644531 32.789063 s -33.644531 -14.679687 -33.644531 -32.789063 c 0 -18.109374 15.0625 -32.789062 33.644531 -32.789062 s 33.644531 14.679688 33.644531 32.789062 z m 0 0" fill="#62a0ea"/>
    <path d="m 45.382812 68.585938 c -0.941406 9.585937 -8.992187 16.902343 -18.625 16.925781 c -9.570312 -0.019531 -17.59375 -7.238281 -18.613281 -16.753907 c -0.085937 0.660157 -0.132812 1.328126 -0.144531 2 c 0 10.355469 8.398438 18.753907 18.757812 18.753907 c 10.355469 0 18.753907 -8.398438 18.753907 -18.753907 c 0 -0.726562 -0.042969 -1.453124 -0.128907 -2.171874 z m 0 0" fill="url(#c)"/>
    <path d="m 63.949219 90.972656 c 0 13.792969 -11.183594 24.976563 -24.976563 24.976563 c -13.792968 0 -24.972656 -11.183594 -24.972656 -24.976563 c 0 -13.792968 11.179688 -24.972656 24.972656 -24.972656 c 13.792969 0 24.976563 11.179688 24.976563 24.972656 z m 0 0" fill="url(#d)"/>
    <path d="m 124 82 c 0 18.777344 -15.222656 34 -34 34 s -34 -15.222656 -34 -34 s 15.222656 -34 34 -34 s 34 15.222656 34 34 z m 0 0" fill="url(#e)"/>
    <path d="m 40 112 h 50 v 4 h -50 z m 0 0" fill="#c0bfbc"/>
    <g fill="#ffffff">
        <path d="m 38 92 h 52 v 20 h -52 z m 0 0"/>
        <path d="m 91.984375 48 c -16.976563 0.042969 -30.984375 14.0625 -31.984375 32 c 1 17.9375 15.007812 31.957031 31.984375 32 c 17.167969 -0.039062 31.273437 -14.371094 32.015625 -32.53125 c -1.25 -17.742188 -15.210938 -31.464844 -32.015625 -31.46875 z m 0 0"/>
        <path d="m 62 88 c 0 13.253906 -10.746094 24 -24 24 s -24 -10.746094 -24 -24 s 10.746094 -24 24 -24 s 24 10.746094 24 24 z m 0 0"/>
    </g>
    <path d="m 98 70.929688 c 0 18.207031 -14.773438 32.964843 -33 32.964843 s -33 -14.757812 -33 -32.964843 c 0 -18.207032 14.773438 -32.964844 33 -32.964844 s 33 14.757812 33 32.964844 z m 0 0" fill="url(#f)"/>
    <path d="m 98 65.980469 c 0 18.769531 -15.222656 33.984375 -34 33.984375 s -34 -15.214844 -34 -33.984375 c 0 -18.765625 15.222656 -33.980469 34 -33.980469 s 34 15.214844 34 33.980469 z m 0 0" fill="#ffffff"/>
    <path d="m 62 40.964844 v 3.996094 l 3 3.003906 h -6.894531 c -7.789063 0 -14.105469 6.316406 -14.105469 14.105468 v 6.8125 c 0 2.253907 1.824219 4.082032 4.078125 4.082032 c 2.1875 -0.023438 3.945313 -1.8125 3.921875 -4.003906 v -7 c 0 -3.3125 2.6875 -5.996094 6 -5.996094 h 7 l -3 3 v 4 h 3 c 1.28125 0 2.507812 -0.511719 3.414062 -1.414063 l 7.050782 -7.054687 c 1.398437 -1.398438 1.398437 -3.664063 0 -5.0625 l -7.050782 -7.054688 c -0.90625 -0.90625 -2.132812 -1.414062 -3.414062 -1.414062 z m 17.921875 17 c -2.1875 0.019531 -3.945313 1.808594 -3.921875 3.996094 v 7.972656 c 0 3.316406 -2.683594 6.003906 -6 6.011718 l -6.996094 0.015626 l 2.996094 -2.996094 v -4.003906 h -3 c -1.28125 0.003906 -2.507812 0.511718 -3.414062 1.417968 l -7.054688 7.054688 c -1.394531 1.398437 -1.394531 3.664062 0 5.0625 l 7.054688 7.054687 c 0.90625 0.902344 2.132812 1.414063 3.414062 1.414063 h 3 v -4 l -3 -3 h 6.894531 c 7.789063 -0.003906 14.105469 -6.316406 14.105469 -14.105469 v -7.816406 c 0 -2.253907 -1.824219 -4.078125 -4.078125 -4.078125 z m 0 0" fill="#3584e4"/>
    <g mask="url(#i)">
        <g clip-path="url(#m)">
            <g mask="url(#j)">
                <g clip-path="url(#l)">
                    <path d="m 128 80.640625 v 47.359375 h -128 v -47.359375 z m 0 0" fill="url(#k)"/>
                    <path d="m 13.308594 80.640625 l 47.355468 47.359375 h 21.214844 l -47.359375 -47.359375 z m 42.421875 0 l 47.363281 47.359375 h 21.214844 l -47.363282 -47.359375 z m 42.429687 0 l 29.839844 29.839844 v -21.210938 l -8.628906 -8.628906 z m -98.160156 7.90625 v 21.214844 l 18.238281 18.238281 h 21.214844 z m 0 0"/>
                </g>
            </g>
        </g>
    </g>
</svg>
